#!OML:ASF F:\VICON\USERDATA\INSTALL\rory3\rory3.ASF
:FULLY-SPECIFIED
:DEGREES
289
root 9.65286 17.8177 11.7488 -183.431 -85.3224 186.643
lowerback 11.6011 1.7738 3.49223
upperback 1.01231 2.78598 0.623072
thorax -5.30542 1.27553 -1.75309
lowerneck -20.4037 -6.74054 -12.5596
upperneck 25.4367 -8.41941 9.21669
head 12.8374 -3.88433 4.17227
rclavicle -2.98177e-015 -3.97569e-016
rhumerus -29.8996 -5.67042 -83.7319
rradius 39.3951
rwrist 0.915953
rhand -15.1424 9.73635
rfingers 7.12502
rthumb 11.0274 -19.954
lclavicle -2.98177e-015 -3.97569e-016
lhumerus -33.4003 8.26946 75.6882
lradius 34.2956
lwrist -4.61955
lhand -20.6451 27.9078
lfingers 7.12502
lthumb 5.71698 57.8106
rfemur 10.8809 3.8819 29.222
rtibia 10.9492
rfoot -11.7144 13.4235
rtoes 25.7512
lfemur -26.3723 -0.812015 -15.0735
ltibia 18.8639
lfoot -2.51514 0.402727
ltoes -21.0188
290
root 9.54681 17.8108 11.7714 -183.652 -85.0663 186.948
lowerback 11.528 1.75889 3.40529
upperback 0.981535 2.75772 0.699031
thorax -5.30655 1.26427 -1.6184
lowerneck -20.4348 -6.59324 -12.3743
upperneck 25.4369 -8.22108 9.07484
head 12.7996 -3.79608 4.12177
rclavicle 9.34288e-015 -9.14409e-015
rhumerus -30.1269 -5.96066 -83.4904
rradius 38.9632
rwrist 1.1738
rhand -15.0098 9.63507
rfingers 7.12502
rthumb 11.1553 -20.0484
lclavicle 9.34288e-015 -9.14409e-015
lhumerus -33.2872 8.42104 75.5871
lradius 34.5578
lwrist -4.51737
lhand -20.4255 27.733
lfingers 7.12502
lthumb 5.92899 57.63
rfemur 11.5474 3.83768 29.0548
rtibia 10.1758
rfoot -11.2148 13.9297
rtoes 26.3975
lfemur -26.5198 -0.709648 -15.3277
ltibia 17.9197
lfoot -2.44493 0.358861
ltoes -22.1236
291
root 9.4386 17.8088 11.7926 -184.936 -84.9046 188.214
lowerback 11.5484 1.68426 3.39344
upperback 0.99145 2.66346 0.830714
thorax -5.31916 1.21855 -1.46003
lowerneck -20.4428 -6.41938 -12.1404
upperneck 25.3325 -7.95517 8.81815
head 12.699 -3.68595 4.02804
rclavicle -3.38928e-014 -8.74653e-015
rhumerus -30.3068 -6.00851 -83.2832
rradius 38.5142
rwrist 1.44156
rhand -15.2357 9.30114
rfingers 7.12502
rthumb 10.9374 -20.394
lclavicle -3.38928e-014 -8.74653e-015
lhumerus -33.1482 8.6171 75.5612
lradius 34.7734
lwrist -4.45224
lhand -20.2756 27.9379
lfingers 7.12502
lthumb 6.07377 57.8309
rfemur 12.2797 3.95643 29.0791
rtibia 9.49111
rfoot -10.7423 14.1097
rtoes 26.6337
lfemur -26.5473 -0.730605 -15.475
ltibia 17.1542
lfoot -2.41301 0.478901
ltoes -21.8425
292
root 9.32784 17.8015 11.8138 -186.48 -84.7431 189.731
lowerback 11.5511 1.66253 3.50756
upperback 1.01172 2.65093 0.90053
thorax -5.2981 1.21039 -1.44866
lowerneck -20.4776 -6.38309 -11.9651
upperneck 25.2529 -7.89196 8.63656
head 12.6483 -3.6609 3.93646
rclavicle -3.11098e-014 7.95139e-015
rhumerus -30.5071 -6.34269 -83.0284
rradius 38.0114
rwrist 1.65721
rhand -15.2061 9.28987
rfingers 7.12502
rthumb 10.9659 -20.4037
lclavicle -3.11098e-014 7.95139e-015
lhumerus -32.8768 8.64746 75.5606
lradius 34.8869
lwrist -4.47391
lhand -20.2483 28.0339
lfingers 7.12502
lthumb 6.10011 57.9261
rfemur 12.9815 4.05673 29.1888
rtibia 8.93209
rfoot -10.5265 14.0822
rtoes 24.9773
lfemur -26.5348 -0.725831 -15.6292
ltibia 16.5456
lfoot -2.46542 0.687284
ltoes -22.6839
293
root 9.21256 17.7916 11.8381 -186.829 -84.4994 190.065
lowerback 11.5083 1.67532 3.56218
upperback 1.02718 2.67371 0.939393
thorax -5.25625 1.22142 -1.44019
lowerneck -20.599 -6.39321 -12.0651
upperneck 25.3321 -7.8973 8.74332
head 12.7155 -3.65743 3.99448
rclavicle 2.09718e-014 3.18055e-015
rhumerus -30.742 -6.77261 -82.7369
rradius 37.5642
rwrist 1.65461
rhand -15.0477 9.36636
rfingers 7.12502
rthumb 11.1188 -20.3191
lclavicle 2.09718e-014 3.18055e-015
lhumerus -32.6371 8.60836 75.6119
lradius 35.0153
lwrist -4.44422
lhand -20.5638 28.2441
lfingers 7.12502
lthumb 5.7955 58.1449
rfemur 13.6162 4.27333 29.1136
rtibia 8.56354
rfoot -10.1207 14.2397
rtoes 25.6145
lfemur -26.4704 -0.430118 -16.0249
ltibia 16.0842
lfoot -2.73395 0.774708
ltoes -25.2686
294
root 9.09645 17.7861 11.8616 -187.419 -84.41 190.657
lowerback 11.4766 1.60742 3.62531
upperback 1.00468 2.5925 0.962727
thorax -5.26455 1.18001 -1.43806
lowerneck -20.7121 -6.32763 -12.0622
upperneck 25.4645 -7.8278 8.82006
head 12.7861 -3.61659 4.03895
rclavicle 4.17448e-015 -1.15295e-014
rhumerus -31.0057 -7.40576 -82.4757
rradius 37.0149
rwrist 2.05388
rhand -15.1136 9.46388
rfingers 7.12502
rthumb 11.0552 -20.225
lclavicle 4.17448e-015 -1.15295e-014
lhumerus -32.4639 8.5354 75.5926
lradius 35.1308
lwrist -4.38928
lhand -21.1031 28.5645
lfingers 7.12502
lthumb 5.27485 58.4789
rfemur 14.0912 4.33863 29.0362
rtibia 8.39252
rfoot -9.69045 14.4299
rtoes 26.5224
lfemur -26.3983 -0.399004 -16.3757
ltibia 15.821
lfoot -3.07876 0.938867
ltoes -26.845
295
root 8.98284 17.7784 11.8833 -187.2 -84.4758 190.403
lowerback 11.4471 1.51202 3.55938
upperback 1.03091 2.45506 0.96294
thorax -5.2299 1.11478 -1.37832
lowerneck -20.9345 -6.25842 -11.8877
upperneck 25.6348 -7.73348 8.68313
head 12.8724 -3.57148 3.97421
rclavicle 9.74045e-015 2.38542e-015
rhumerus -31.1808 -7.92681 -82.2466
rradius 36.4264
rwrist 2.38338
rhand -15.2152 9.53023
rfingers 7.12502
rthumb 10.9572 -20.1638
lclavicle 9.74045e-015 2.38542e-015
lhumerus -32.176 8.44817 75.5822
lradius 35.1686
lwrist -4.15076
lhand -21.9283 28.666
lfingers 7.12502
lthumb 4.47796 58.5986
rfemur 14.5179 4.25295 28.8805
rtibia 8.33297
rfoot -9.41991 14.5368
rtoes 25.7528
lfemur -26.2971 -0.292749 -16.8955
ltibia 15.7872
lfoot -3.29378 0.827878
ltoes -28.1119
296
root 8.86653 17.769 11.9034 -187.534 -84.4706 190.72
lowerback 11.4317 1.48272 3.51341
upperback 1.00652 2.41407 1.02526
thorax -5.25363 1.09559 -1.28106
lowerneck -21.0356 -6.24498 -11.9381
upperneck 25.7857 -7.70158 8.68949
head 12.9528 -3.56161 3.99356
rclavicle -2.44505e-014 -1.86858e-014
rhumerus -31.53 -8.3788 -81.9033
rradius 35.9459
rwrist 2.53317
rhand -15.4409 9.59233
rfingers 7.12502
rthumb 10.7395 -20.1131
lclavicle -2.44505e-014 -1.86858e-014
lhumerus -31.9642 8.31639 75.6811
lradius 35.2472
lwrist -4.05219
lhand -22.2244 28.6018
lfingers 7.12502
lthumb 4.19205 58.5403
rfemur 14.897 4.22547 28.8194
rtibia 8.34119
rfoot -9.14256 14.6376
rtoes 24.1072
lfemur -26.2197 0.0435213 -17.3594
ltibia 15.9915
lfoot -3.27802 0.476061
ltoes -27.5832
297
root 8.74397 17.7633 11.9223 -187.771 -84.4091 190.979
lowerback 11.3452 1.4856 3.4718
upperback 0.960337 2.41437 1.07865
thorax -5.25815 1.0972 -1.2
lowerneck -20.9368 -6.21385 -12.0046
upperneck 25.7302 -7.6766 8.79866
head 12.9153 -3.5461 4.05274
rclavicle -1.69961e-014 -5.56597e-015
rhumerus -31.9364 -9.05494 -81.4762
rradius 35.476
rwrist 2.89655
rhand -15.4814 9.46072
rfingers 7.12502
rthumb 10.7005 -20.2468
lclavicle -1.69961e-014 -5.56597e-015
lhumerus -31.7426 8.33714 75.7702
lradius 35.2632
lwrist -4.33107
lhand -21.7255 28.3976
lfingers 7.12502
lthumb 4.67385 58.326
rfemur 15.2913 4.26187 28.7528
rtibia 8.25636
rfoot -8.69551 14.7364
rtoes 23.1439
lfemur -26.2073 0.204218 -17.7365
ltibia 16.5023
lfoot -3.08672 0.424361
ltoes -26.0273
298
root 8.61792 17.756 11.9382 -189.846 -84.3503 193.005
lowerback 11.2975 1.41821 3.53822
upperback 0.947359 2.33656 1.18761
thorax -5.25062 1.05812 -1.11016
lowerneck -20.8936 -6.11459 -11.9034
upperneck 25.7009 -7.56761 8.78263
head 12.8746 -3.49179 4.04946
rclavicle -1.94809e-014 -1.39149e-014
rhumerus -32.2887 -9.29235 -81.2279
rradius 34.9753
rwrist 2.87227
rhand -15.6152 9.22644
rfingers 7.12502
rthumb 10.5713 -20.4877
lclavicle -1.94809e-014 -1.39149e-014
lhumerus -31.5804 8.2617 75.8295
lradius 35.3496
lwrist -4.55166
lhand -20.1841 28.124
lfingers 7.12502
lthumb 6.16209 58.0143
rfemur 15.9947 4.26605 28.8352
rtibia 7.79133
rfoot -7.73292 15.0186
rtoes 24.6386
lfemur -26.2119 0.365461 -17.9646
ltibia 17.3638
lfoot -2.83427 0.391285
ltoes -25.6948
299
root 8.48672 17.7491 11.9529 -193.701 -84.1899 196.722
lowerback 11.3274 1.36628 3.80992
upperback 0.951457 2.3069 1.3098
thorax -5.25877 1.03718 -1.1309
lowerneck -20.9392 -6.04645 -11.7271
upperneck 25.7838 -7.52146 8.73515
head 12.9005 -3.46114 4.01092
rclavicle 4.07509e-015 5.96354e-015
rhumerus -32.6273 -9.53731 -81.0217
rradius 34.3462
rwrist 2.83065
rhand -15.6741 9.15294
rfingers 7.12502
rthumb 10.5145 -20.5641
lclavicle 4.07509e-015 5.96354e-015
lhumerus -31.4298 8.13334 75.8058
lradius 35.4328
lwrist -4.84171
lhand -18.9246 27.9873
lfingers 7.12502
lthumb 7.37795 57.8386
rfemur 16.9021 4.29786 29.1635
rtibia 7.20098
rfoot -6.88741 15.2093
rtoes 24.2653
lfemur -26.055 0.443475 -17.8946
ltibia 18.3104
lfoot -2.70281 0.220261
ltoes -24.3035
300
root 8.347 17.7497 11.969 -196.759 -84.1053 199.568
lowerback 11.3501 1.34958 4.0582
upperback 0.978342 2.3176 1.38822
thorax -5.23618 1.03713 -1.18979
lowerneck -20.9718 -6.03892 -11.6476
upperneck 25.875 -7.54916 8.74321
head 12.9441 -3.46576 3.99733
rclavicle 8.94531e-016 -5.56597e-015
rhumerus -33.1292 -10.486 -80.549
rradius 33.8085
rwrist 3.46149
rhand -15.4273 9.30437
rfingers 7.12502
rthumb 10.7526 -20.4004
lclavicle 8.94531e-016 -5.56597e-015
lhumerus -31.1605 8.08394 75.8516
lradius 35.2846
lwrist -5.09822
lhand -18.8366 27.7868
lfingers 7.12502
lthumb 7.46288 57.6352
rfemur 17.7393 4.24723 29.386
rtibia 6.89324
rfoot -6.25342 15.4451
rtoes 22.7303
lfemur -25.7008 0.0296262 -17.7345
ltibia 19.1355
lfoot -2.38374 -0.125602
ltoes -20.1129
301
root 8.20368 17.755 11.9913 -196.29 -84.1321 198.832
lowerback 11.4172 1.31953 3.9329
upperback 1.0038 2.26522 1.41695
thorax -5.25531 1.01391 -1.0831
lowerneck -20.9689 -5.97794 -11.622
upperneck 25.9616 -7.45045 8.64849
head 12.9604 -3.43402 3.97586
rclavicle 2.11706e-014 2.26615e-014
rhumerus -33.8152 -11.7077 -79.8409
rradius 33.4862
rwrist 4.54333
rhand -15.1756 9.45433
rfingers 7.12502
rthumb 10.9954 -20.2377
lclavicle 2.11706e-014 2.26615e-014
lhumerus -30.9313 8.35333 75.9299
lradius 34.9967
lwrist -5.4781
lhand -18.6717 26.9061
lfingers 7.12502
lthumb 7.62201 56.7487
rfemur 18.3903 4.21134 29.1158
rtibia 6.99886
rfoot -5.43984 15.8674
rtoes 22.5053
lfemur -25.287 -0.886656 -17.8512
ltibia 19.8577
lfoot -1.59061 -0.37684
ltoes -15.5686
302
root 8.06553 17.7668 12.0117 -193.952 -84.169 196.38
lowerback 11.4718 1.30655 3.62717
upperback 0.92634 2.21567 1.36574
thorax -5.37923 0.994309 -0.960525
lowerneck -20.9904 -5.93962 -11.621
upperneck 26.1402 -7.40046 8.60439
head 13.0289 -3.42129 3.97153
rclavicle -3.37934e-015 -1.11319e-014
rhumerus -34.4003 -12.2306 -79.4279
rradius 33.0183
rwrist 4.64095
rhand -15.193 9.28888
rfingers 7.12502
rthumb 10.9786 -20.4041
lclavicle -3.37934e-015 -1.11319e-014
lhumerus -30.8436 8.17314 76.0349
lradius 34.9446
lwrist -5.50311
lhand -18.2855 26.3338
lfingers 7.12502
lthumb 7.99479 56.1626
rfemur 18.4961 4.23533 28.654
rtibia 7.77935
rfoot -4.65831 16.2972
rtoes 22.1867
lfemur -25.0756 -2.03383 -18.038
ltibia 20.4252
lfoot -0.715971 -0.432949
ltoes -12.917
